<svg viewBox="-32 -32 128 128" fill="none" xmlns="http://www.w3.org/2000/svg"><path fill-rule="evenodd" clip-rule="evenodd" d="M55.467 28.006a.71.71 0 01-.345.609l-6.235 1.812c.57-1.744.89-3.603.89-5.538V11.378h4.978c.393 0 .712.318.712.71v15.918zM32 38.4c-7.45 0-13.511-6.062-13.511-13.511V7.11H45.51v17.778c0 7.45-6.062 13.51-13.511 13.51zm3.556 9.955h-5.69v-5.83c.702.086 1.41.142 2.134.142 1.217 0 2.406-.124 3.556-.358v6.046zm8.418 8.534H21.449l1.422-4.267h19.68l1.423 4.267zM8.877 28.615a.71.71 0 01-.344-.609V12.09c0-.393.319-.711.711-.711h4.978v13.51c0 1.936.32 3.795.89 5.539l-6.235-1.812zM54.755 7.11h-4.977V5.689a2.845 2.845 0 00-2.845-2.845H17.067a2.845 2.845 0 00-2.845 2.845V7.11H9.244a4.983 4.983 0 00-4.977 4.978v15.917a4.98 4.98 0 002.982 4.561c.084.036.17.069.26.094l9.674 2.81c.198.057.398.086.595.086.008 0 .014-.005.023-.005A17.78 17.78 0 0025.6 41.46v6.896h-4.267c-.918 0-1.733.588-2.024 1.46l-2.844 8.533a2.135 2.135 0 002.024 2.807h28.444a2.135 2.135 0 002.024-2.807l-2.844-8.533a2.132 2.132 0 00-2.024-1.46h-4.267v-7.52a17.802 17.802 0 006.377-5.282c.009 0 .015.004.023.004.196 0 .397-.029.595-.086l9.674-2.81c.09-.026.176-.058.26-.094a4.98 4.98 0 002.982-4.56v-15.92a4.983 4.983 0 00-4.977-4.978z" fill="#5C6AC4"/></svg>