<svg viewBox="-32 -32 128 128" fill="none" xmlns="http://www.w3.org/2000/svg"><path fill-rule="evenodd" clip-rule="evenodd" d="M50.278 56.889h7.11v-18.49h-7.11v18.49zm-2.306-26.311L36.767 19.372l-4.978 4.978v22.41l16.183-16.183zm-1.961 7.994S28.663 56.296 28.104 56.889H46.01V38.572zM9.033 15.644h18.49v-7.11H9.032v7.11zm18.49 4.267H9.032v27.733c0 5.098 4.148 9.245 9.245 9.245 5.097 0 9.244-4.147 9.244-9.245V19.911zm12.26-3.556L50.99 27.561l5.517-5.517L45.3 10.84l-5.517 5.516zm21.873 19.912v22.755a2.133 2.133 0 01-2.134 2.134H18.278c-7.45 0-13.511-6.062-13.511-13.512V6.4c0-1.178.954-2.133 2.133-2.133h22.755c1.18 0 2.134.955 2.134 2.133v11.917L43.79 6.313a2.136 2.136 0 013.018 0L61.03 20.535a2.137 2.137 0 010 3.018l-10.58 10.58h9.072c1.18 0 2.134.956 2.134 2.134zM15.433 47.644a2.845 2.845 0 015.69 0 2.846 2.846 0 01-5.69 0z" fill="#5C6AC4"/></svg>