<svg viewBox="-32 -32 128 128" fill="none" xmlns="http://www.w3.org/2000/svg"><path fill-rule="evenodd" clip-rule="evenodd" d="M54.044 28.444H35.556v-7.11h18.489v7.11zM35.556 56.89h14.222V32.71H35.556v24.178zm-21.334 0h14.223V32.71H14.222v24.178zM9.956 21.333h18.489v7.111H9.956v-7.11zm7.11-9.244c0-2.745 2.106-4.978 4.694-4.978 4.892 0 7.443 4.834 7.991 9.956h-7.99c-2.59 0-4.694-2.233-4.694-4.978zm23.467-2.134a3.56 3.56 0 013.556 3.556 3.56 3.56 0 01-3.556 3.556h-6.239c.545-3.724 2.543-7.112 6.24-7.112zm15.645 7.112h-8.686a7.773 7.773 0 00.864-3.556c0-4.314-3.509-7.822-7.823-7.822-3.642 0-6.371 1.846-8.162 4.555-2.315-5.032-6.565-7.4-10.61-7.4-4.942 0-8.96 4.147-8.96 9.245 0 1.833.525 3.538 1.421 4.978h-6.4A2.132 2.132 0 005.69 19.2v11.378c0 1.179.954 2.133 2.133 2.133h2.134v26.311c0 1.179.954 2.133 2.133 2.133h39.822a2.132 2.132 0 002.133-2.133V32.711h2.134a2.132 2.132 0 002.133-2.133V19.2a2.132 2.132 0 00-2.133-2.133z" fill="#5C6AC4"/></svg>