<svg viewBox="-32 -32 128 128" fill="none" xmlns="http://www.w3.org/2000/svg"><path fill-rule="evenodd" clip-rule="evenodd" d="M28.445 25.6h5.688v4.267h-4.266v4.266H25.6v-5.689a2.845 2.845 0 012.845-2.844zm9.955 4.267h7.111V25.6h-7.11v4.267zm-4.267 25.6v1.422c0 .785-.637 1.422-1.422 1.422h-4.266a2.845 2.845 0 01-2.845-2.844v-5.69h4.267v4.267h2.844c.785 0 1.422.638 1.422 1.423zM25.6 45.51h4.267V38.4H25.6v7.111zm21.107 1.09c-.509.176-.931.54-1.183 1.015l-2.028 3.833-2.286-10.48 9.292 4.307-3.795 1.325zm10.368-2.981l-17.968-8.332a2.133 2.133 0 00-2.981 2.391l4.446 20.375a2.133 2.133 0 003.97.543l4.361-8.245 7.977-2.783a2.13 2.13 0 001.428-1.909 2.136 2.136 0 00-1.233-2.04zm1.236-15.175v4.266c0 .785-.637 1.422-1.422 1.422h-1.422a1.423 1.423 0 01-1.422-1.422v-2.844h-4.267V25.6h5.689a2.845 2.845 0 012.844 2.845zm-38.4-17.067h34.133V7.11H19.911v4.267zm-9.955 0h5.689V7.11h-5.69v4.267zM58.31 7.11a4.266 4.266 0 00-4.267-4.267H9.956A4.266 4.266 0 005.689 7.11V51.2a4.266 4.266 0 004.267 4.267h8.533c.785 0 1.422-.637 1.422-1.422v-1.423c0-.785-.637-1.422-1.422-1.422H9.956V15.644h44.088v2.845c0 .785.638 1.422 1.423 1.422h1.422c.785 0 1.422-.637 1.422-1.422v-7.111h-.03c.014-1.757.03-4.267.03-4.267z" fill="#5C6AC4"/></svg>