<svg viewBox="-32 -32 128 128" fill="none" xmlns="http://www.w3.org/2000/svg"><path fill-rule="evenodd" clip-rule="evenodd" d="M36.267 39.283l14.76 14.761-1.96 1.962-14.762-14.761 1.962-1.962zm-12.092 6.94l-.002 2.133c-.048 4.672-3.845 8.533-8.529 8.533-.156 0-.31-.016-.463-.024l2.982-2.984c1.745-1.745 2.317-4.446 1.173-6.632-1.905-3.637-6.496-4.136-9.136-1.493l-3.065 3.063c-.008-.153-.024-.307-.024-.463 0-4.684 3.773-8.481 8.444-8.53h.09c0 .003 1.069.002 2.135 0a2.123 2.123 0 001.475-.6l.003-.002a.9.9 0 00.053-.053l19.784-19.782-.004-.008c.45-.392.74-.957.742-1.599.005-1.072.005-2.143-.011-2.129v-.008a8.534 8.534 0 018.533-8.534c.157 0 .31.016.464.024l-2.982 2.984c-1.745 1.745-2.317 4.446-1.174 6.632 1.906 3.637 6.497 4.134 9.137 1.493l3.065-3.063c.008.153.024.307.024.464a8.535 8.535 0 01-8.534 8.533h-.008l-2.126.004c-.565 0-1.074.223-1.455.582l-.007-.006L24.877 44.64l.007.006c-.433.39-.71.949-.71 1.579zm-5.598-25.69v.001a2.134 2.134 0 00-1.51-.626h-5.08l-4.412-8.822 3.514-3.513 8.822 4.412v5.082c0 .588.239 1.122.624 1.507l6.67 6.67-1.958 1.959-6.67-6.67zm37.428 28.534l-1.96 1.961-14.762-14.761 1.961-1.962 14.761 14.762zm5.15 0c0-.59-.239-1.122-.624-1.51L44.261 31.29l2.847-2.847h1.247c.979.003 1.964-.103 2.984-.336 4.513-1.037 8.138-4.595 9.355-9.06.726-2.666.55-5.21-.214-7.48a12.751 12.751 0 00-1.018-2.272c-.505-.882-1.734-1.01-2.452-.293l-1.704 1.704-4.523 4.523a1.42 1.42 0 01-2.01 0 1.42 1.42 0 010-2.011l4.522-4.523L55 6.99c.717-.717.589-1.946-.293-2.45a12.703 12.703 0 00-2.273-1.019 12.667 12.667 0 00-6.69-.404c-5.204 1.085-9.31 5.392-10.055 10.655-.09.622-.13 1.276-.13 1.882v1.239l-5.337 5.336-6.044-6.045v-5.516c0-.84-.491-1.562-1.198-1.909l.004-.007-11.376-5.688-.004.008a2.1 2.1 0 00-.938-.227c-.544 0-1.036.211-1.413.548l-.009-.008L3.47 9.158a2.13 2.13 0 00-.625 1.509c0 .337.087.652.225.935l-.006.003 5.69 11.377.006-.003a2.127 2.127 0 001.907 1.196h5.519l6.044 6.046-5.337 5.337h-1.248c-.978-.002-1.98.106-2.996.339-4.506 1.04-8.126 4.595-9.342 9.054a12.703 12.703 0 00.214 7.483c.267.796.608 1.555 1.018 2.272.505.882 1.734 1.011 2.452.293l1.704-1.704 4.522-4.523a1.42 1.42 0 012.011 0 1.42 1.42 0 010 2.011l-4.522 4.523L9 57.011c-.717.717-.59 1.946.293 2.45.716.41 1.476.752 2.272 1.019a12.71 12.71 0 007.56.192c4.438-1.237 7.965-4.857 8.986-9.351.228-1.007.333-1.998.33-2.965l.003-1.25 2.845-2.845L47.557 60.53a2.129 2.129 0 003.018 0l10.041-10.041-.008-.009c.337-.377.547-.869.547-1.413z" fill="#5C6AC4"/></svg>