<svg viewBox="-32 -32 128 128" fill="none" xmlns="http://www.w3.org/2000/svg"><path fill-rule="evenodd" clip-rule="evenodd" d="M56.57 40.818c-.881 2.637-4.663 7.246-10.35 11.265a48.221 48.221 0 01-2.077-1.541 43.842 43.842 0 01-3.228-2.866c-2.715-2.651-4.479-5.158-5.047-6.858-.527-1.628-.385-3.472.383-4.797.682-1.154 1.764-1.873 3.257-2.162.185-.028.37-.043.555-.043 2.743 0 4.05 3.991 4.123 4.222a2.115 2.115 0 002.034 1.499c.923 0 1.748-.606 2.032-1.5.057-.201 1.508-4.639 4.551-4.192.041 0 .084.014.127.014 1.493.289 2.574 1.008 3.255 2.162.059.085.101.188.128.273.655 1.297.755 3.012.258 4.524zM32 54.951C19.132 45.773 10.031 33.99 7.928 27.32c-1.395-4.367-.953-9.279 1.122-12.837 1.778-3.025 4.663-5.014 8.347-5.719a8.762 8.762 0 011.693-.172c3.753 0 6.427 2.564 8.189 5.185 1.765 2.623 2.617 5.302 2.688 5.533A2.123 2.123 0 0032 20.837c.94 0 1.763-.62 2.033-1.527.158-.49 3.897-12.26 12.57-10.546 3.683.705 6.569 2.694 8.346 5.719 2.075 3.558 2.518 8.47 1.123 12.837-.255.806-.61 1.7-1.066 2.635a9.012 9.012 0 00-1.294-.345c-3.385-.633-5.872 1.109-7.492 3.227-1.621-2.118-4.11-3.86-7.495-3.228-2.715.52-4.833 1.974-6.141 4.222-1.408 2.406-1.679 5.518-.754 8.341.81 2.463 2.942 5.446 5.858 8.356A84.995 84.995 0 0132 54.95zm26.646-22.733c.64-1.283 1.138-2.48 1.493-3.573 1.778-5.59 1.195-11.698-1.522-16.365-2.417-4.12-6.283-6.8-11.203-7.766C39.935 3.06 34.816 8.274 32 13.302 29.184 8.275 24.066 3.06 16.586 4.514 11.666 5.48 7.8 8.16 5.382 12.28c-2.715 4.667-3.3 10.774-1.522 16.365 2.46 7.75 12.5 20.787 26.946 30.714.355.244.782.375 1.194.375.413 0 .838-.131 1.194-.375a94.568 94.568 0 007.72-5.922 47.858 47.858 0 004.138 3.07c.356.23.755.345 1.168.345.412 0 .81-.115 1.165-.345 6.512-4.323 11.83-10.085 13.223-14.335.925-2.823.655-5.935-.752-8.341a8.555 8.555 0 00-1.21-1.613z" fill="#5C6AC4"/></svg>